<?xml version="1.0" encoding="utf-8" standalone="no"?>
<!DOCTYPE svg PUBLIC "-//W3C//DTD SVG 1.1//EN"
  "http://www.w3.org/Graphics/SVG/1.1/DTD/svg11.dtd">
<svg xmlns:xlink="http://www.w3.org/1999/xlink" width="371.52pt" height="280.512pt" viewBox="0 0 371.52 280.512" xmlns="http://www.w3.org/2000/svg" version="1.1">
 <metadata>
  <rdf:RDF xmlns:dc="http://purl.org/dc/elements/1.1/" xmlns:cc="http://creativecommons.org/ns#" xmlns:rdf="http://www.w3.org/1999/02/22-rdf-syntax-ns#">
   <cc:Work>
    <dc:type rdf:resource="http://purl.org/dc/dcmitype/StillImage"/>
    <dc:date>2025-03-12T17:16:46.192227</dc:date>
    <dc:format>image/svg+xml</dc:format>
    <dc:creator>
     <cc:Agent>
      <dc:title>Matplotlib v3.9.2, https://matplotlib.org/</dc:title>
     </cc:Agent>
    </dc:creator>
   </cc:Work>
  </rdf:RDF>
 </metadata>
 <defs>
  <style type="text/css">*{stroke-linejoin: round; stroke-linecap: butt}</style>
 </defs>
 <g id="figure_1">
  <g id="patch_1">
   <path d="M 0 280.512 
L 371.52 280.512 
L 371.52 0 
L 0 0 
z
" style="fill: #ffffff"/>
  </g>
  <g id="axes_1">
   <g id="patch_2">
    <path d="M 74.104615 75.123692 
C 81.507454 75.123692 88.608088 72.182513 93.842685 66.947916 
C 99.077283 61.713319 102.018462 54.612685 102.018462 47.209846 
C 102.018462 39.807008 99.077283 32.706374 93.842685 27.471776 
C 88.608088 22.237179 81.507454 19.296 74.104615 19.296 
C 66.701777 19.296 59.601143 22.237179 54.366545 27.471776 
C 49.131948 32.706374 46.190769 39.807008 46.190769 47.209846 
C 46.190769 54.612685 49.131948 61.713319 54.366545 66.947916 
C 59.601143 72.182513 66.701777 75.123692 74.104615 75.123692 
z
" clip-path="url(#pc3057b4a3c)" style="fill: #ffff77; stroke: #000000; stroke-width: 0.7; stroke-linejoin: miter"/>
   </g>
   <g id="patch_3">
    <path d="M 148.541538 75.123692 
C 155.944377 75.123692 163.045011 72.182513 168.279608 66.947916 
C 173.514206 61.713319 176.455385 54.612685 176.455385 47.209846 
C 176.455385 39.807008 173.514206 32.706374 168.279608 27.471776 
C 163.045011 22.237179 155.944377 19.296 148.541538 19.296 
C 141.1387 19.296 134.038066 22.237179 128.803469 27.471776 
C 123.568871 32.706374 120.627692 39.807008 120.627692 47.209846 
C 120.627692 54.612685 123.568871 61.713319 128.803469 66.947916 
C 134.038066 72.182513 141.1387 75.123692 148.541538 75.123692 
z
" clip-path="url(#pc3057b4a3c)" style="fill: #ffff77; stroke: #000000; stroke-width: 0.7; stroke-linejoin: miter"/>
   </g>
   <g id="patch_4">
    <path d="M 222.978462 75.123692 
C 230.3813 75.123692 237.481934 72.182513 242.716531 66.947916 
C 247.951129 61.713319 250.892308 54.612685 250.892308 47.209846 
C 250.892308 39.807008 247.951129 32.706374 242.716531 27.471776 
C 237.481934 22.237179 230.3813 19.296 222.978462 19.296 
C 215.575623 19.296 208.474989 22.237179 203.240392 27.471776 
C 198.005794 32.706374 195.064615 39.807008 195.064615 47.209846 
C 195.064615 54.612685 198.005794 61.713319 203.240392 66.947916 
C 208.474989 72.182513 215.575623 75.123692 222.978462 75.123692 
z
" clip-path="url(#pc3057b4a3c)" style="fill: #ffff77; stroke: #000000; stroke-width: 0.7; stroke-linejoin: miter"/>
   </g>
   <g id="patch_5">
    <path d="M 297.415385 75.123692 
C 304.818223 75.123692 311.918857 72.182513 317.153455 66.947916 
C 322.388052 61.713319 325.329231 54.612685 325.329231 47.209846 
C 325.329231 39.807008 322.388052 32.706374 317.153455 27.471776 
C 311.918857 22.237179 304.818223 19.296 297.415385 19.296 
C 290.012546 19.296 282.911912 22.237179 277.677315 27.471776 
C 272.442717 32.706374 269.501538 39.807008 269.501538 47.209846 
C 269.501538 54.612685 272.442717 61.713319 277.677315 66.947916 
C 282.911912 72.182513 290.012546 75.123692 297.415385 75.123692 
z
" clip-path="url(#pc3057b4a3c)" style="fill: #ffff77; stroke: #000000; stroke-width: 0.7; stroke-linejoin: miter"/>
   </g>
   <g id="patch_6">
    <path d="M 185.76 261.216 
C 193.162839 261.216 200.263473 258.274821 205.49807 253.040224 
C 210.732667 247.805626 213.673846 240.704992 213.673846 233.302154 
C 213.673846 225.899315 210.732667 218.798681 205.49807 213.564084 
C 200.263473 208.329487 193.162839 205.388308 185.76 205.388308 
C 178.357161 205.388308 171.256527 208.329487 166.02193 213.564084 
C 160.787333 218.798681 157.846154 225.899315 157.846154 233.302154 
C 157.846154 240.704992 160.787333 247.805626 166.02193 253.040224 
C 171.256527 258.274821 178.357161 261.216 185.76 261.216 
z
" clip-path="url(#pc3057b4a3c)" style="fill: #ff6644; stroke: #000000; stroke-width: 0.7; stroke-linejoin: miter"/>
   </g>
   <g id="patch_7">
    <path d="M 170.097719 206.420579 
L 161.122161 198.807384 
L 164.303675 196.876036 
L 164.303674 196.876035 
L 164.303674 196.876035 
L 164.303675 196.876036 
L 167.485189 194.944688 
z
" clip-path="url(#pc3057b4a3c)" style="fill: #ffd077; stroke: #ffd077; stroke-width: 2; stroke-linejoin: miter"/>
   </g>
   <g id="line2d_1">
    <path d="M 88.608088 72.182513 
L 165.462483 198.784944 
" clip-path="url(#pc3057b4a3c)" style="fill: none; stroke: #ffd077; stroke-width: 2"/>
   </g>
   <g id="patch_8">
    <path d="M 177.978506 203.187538 
L 172.417279 192.814779 
L 176.08523 192.183687 
L 176.085229 192.183686 
L 176.085229 192.183686 
L 176.08523 192.183687 
L 179.75318 191.552594 
z
" clip-path="url(#pc3057b4a3c)" style="fill: #ffd077; stroke: #ffd077; stroke-width: 2; stroke-linejoin: miter"/>
   </g>
   <g id="line2d_2">
    <path d="M 155.944377 75.123692 
L 176.463885 194.384456 
" clip-path="url(#pc3057b4a3c)" style="fill: none; stroke: #ffd077; stroke-width: 2"/>
   </g>
   <g id="patch_9">
    <path d="M 193.541494 203.187538 
L 191.76682 191.552594 
L 195.43477 192.183687 
L 195.434771 192.183686 
L 195.434771 192.183686 
L 195.43477 192.183687 
L 199.102721 192.814779 
z
" clip-path="url(#pc3057b4a3c)" style="fill: #ffd077; stroke: #ffd077; stroke-width: 2; stroke-linejoin: miter"/>
   </g>
   <g id="line2d_3">
    <path d="M 215.575623 75.123692 
L 195.056115 194.384456 
" clip-path="url(#pc3057b4a3c)" style="fill: none; stroke: #ffd077; stroke-width: 2"/>
   </g>
   <g id="patch_10">
    <path d="M 201.422281 206.420579 
L 204.034811 194.944688 
L 207.216325 196.876036 
L 207.216326 196.876035 
L 207.216326 196.876035 
L 207.216325 196.876036 
L 210.397839 198.807384 
z
" clip-path="url(#pc3057b4a3c)" style="fill: #ffd077; stroke: #ffd077; stroke-width: 2; stroke-linejoin: miter"/>
   </g>
   <g id="line2d_4">
    <path d="M 282.911912 72.182513 
L 206.057517 198.784944 
" clip-path="url(#pc3057b4a3c)" style="fill: none; stroke: #ffd077; stroke-width: 2"/>
   </g>
   <g id="text_1">
    <!-- $x_1$ -->
    <g transform="translate(64.474615 52.176721) scale(0.18 -0.18)">
     <defs>
      <path id="DejaVuSans-Oblique-78" d="M 3841 3500 
L 2234 1784 
L 3219 0 
L 2559 0 
L 1819 1388 
L 531 0 
L -166 0 
L 1556 1844 
L 641 3500 
L 1300 3500 
L 1972 2234 
L 3144 3500 
L 3841 3500 
z
" transform="scale(0.015625)"/>
      <path id="DejaVuSans-31" d="M 794 531 
L 1825 531 
L 1825 4091 
L 703 3866 
L 703 4441 
L 1819 4666 
L 2450 4666 
L 2450 531 
L 3481 531 
L 3481 0 
L 794 0 
L 794 531 
z
" transform="scale(0.015625)"/>
     </defs>
     <use xlink:href="#DejaVuSans-Oblique-78" transform="translate(0 0.3125)"/>
     <use xlink:href="#DejaVuSans-31" transform="translate(59.179688 -16.09375) scale(0.7)"/>
    </g>
   </g>
   <g id="text_2">
    <!-- $x_2$ -->
    <g transform="translate(138.911538 52.176721) scale(0.18 -0.18)">
     <defs>
      <path id="DejaVuSans-32" d="M 1228 531 
L 3431 531 
L 3431 0 
L 469 0 
L 469 531 
Q 828 903 1448 1529 
Q 2069 2156 2228 2338 
Q 2531 2678 2651 2914 
Q 2772 3150 2772 3378 
Q 2772 3750 2511 3984 
Q 2250 4219 1831 4219 
Q 1534 4219 1204 4116 
Q 875 4013 500 3803 
L 500 4441 
Q 881 4594 1212 4672 
Q 1544 4750 1819 4750 
Q 2544 4750 2975 4387 
Q 3406 4025 3406 3419 
Q 3406 3131 3298 2873 
Q 3191 2616 2906 2266 
Q 2828 2175 2409 1742 
Q 1991 1309 1228 531 
z
" transform="scale(0.015625)"/>
     </defs>
     <use xlink:href="#DejaVuSans-Oblique-78" transform="translate(0 0.3125)"/>
     <use xlink:href="#DejaVuSans-32" transform="translate(59.179688 -16.09375) scale(0.7)"/>
    </g>
   </g>
   <g id="text_3">
    <!-- $x_3$ -->
    <g transform="translate(213.348462 52.176721) scale(0.18 -0.18)">
     <defs>
      <path id="DejaVuSans-33" d="M 2597 2516 
Q 3050 2419 3304 2112 
Q 3559 1806 3559 1356 
Q 3559 666 3084 287 
Q 2609 -91 1734 -91 
Q 1441 -91 1130 -33 
Q 819 25 488 141 
L 488 750 
Q 750 597 1062 519 
Q 1375 441 1716 441 
Q 2309 441 2620 675 
Q 2931 909 2931 1356 
Q 2931 1769 2642 2001 
Q 2353 2234 1838 2234 
L 1294 2234 
L 1294 2753 
L 1863 2753 
Q 2328 2753 2575 2939 
Q 2822 3125 2822 3475 
Q 2822 3834 2567 4026 
Q 2313 4219 1838 4219 
Q 1578 4219 1281 4162 
Q 984 4106 628 3988 
L 628 4550 
Q 988 4650 1302 4700 
Q 1616 4750 1894 4750 
Q 2613 4750 3031 4423 
Q 3450 4097 3450 3541 
Q 3450 3153 3228 2886 
Q 3006 2619 2597 2516 
z
" transform="scale(0.015625)"/>
     </defs>
     <use xlink:href="#DejaVuSans-Oblique-78" transform="translate(0 0.3125)"/>
     <use xlink:href="#DejaVuSans-33" transform="translate(59.179688 -16.09375) scale(0.7)"/>
    </g>
   </g>
   <g id="text_4">
    <!-- $x_4$ -->
    <g transform="translate(287.785385 52.176721) scale(0.18 -0.18)">
     <defs>
      <path id="DejaVuSans-34" d="M 2419 4116 
L 825 1625 
L 2419 1625 
L 2419 4116 
z
M 2253 4666 
L 3047 4666 
L 3047 1625 
L 3713 1625 
L 3713 1100 
L 3047 1100 
L 3047 0 
L 2419 0 
L 2419 1100 
L 313 1100 
L 313 1709 
L 2253 4666 
z
" transform="scale(0.015625)"/>
     </defs>
     <use xlink:href="#DejaVuSans-Oblique-78" transform="translate(0 0.3125)"/>
     <use xlink:href="#DejaVuSans-34" transform="translate(59.179688 -16.09375) scale(0.7)"/>
    </g>
   </g>
   <g id="text_5">
    <!-- $y_1$ -->
    <g transform="translate(176.13 238.232466) scale(0.18 -0.18)">
     <defs>
      <path id="DejaVuSans-Oblique-79" d="M 1588 -325 
Q 1188 -997 936 -1164 
Q 684 -1331 294 -1331 
L -159 -1331 
L -63 -850 
L 269 -850 
Q 509 -850 678 -719 
Q 847 -588 1056 -206 
L 1234 128 
L 459 3500 
L 1069 3500 
L 1650 819 
L 3256 3500 
L 3859 3500 
L 1588 -325 
z
" transform="scale(0.015625)"/>
     </defs>
     <use xlink:href="#DejaVuSans-Oblique-79" transform="translate(0 0.3125)"/>
     <use xlink:href="#DejaVuSans-31" transform="translate(59.179688 -16.09375) scale(0.7)"/>
    </g>
   </g>
   <g id="text_6">
    <!-- ? -->
    <g transform="translate(125.155276 145.222875) scale(0.18 -0.18)">
     <defs>
      <path id="DejaVuSans-3f" d="M 1222 794 
L 1856 794 
L 1856 0 
L 1222 0 
L 1222 794 
z
M 1838 1253 
L 1241 1253 
L 1241 1734 
Q 1241 2050 1328 2253 
Q 1416 2456 1697 2725 
L 1978 3003 
Q 2156 3169 2236 3316 
Q 2316 3463 2316 3616 
Q 2316 3894 2111 4066 
Q 1906 4238 1569 4238 
Q 1322 4238 1042 4128 
Q 763 4019 459 3809 
L 459 4397 
Q 753 4575 1054 4662 
Q 1356 4750 1678 4750 
Q 2253 4750 2601 4447 
Q 2950 4144 2950 3647 
Q 2950 3409 2837 3195 
Q 2725 2981 2444 2713 
L 2169 2444 
Q 2022 2297 1961 2214 
Q 1900 2131 1875 2053 
Q 1856 1988 1847 1894 
Q 1838 1800 1838 1638 
L 1838 1253 
z
" transform="scale(0.015625)"/>
     </defs>
     <use xlink:href="#DejaVuSans-3f"/>
    </g>
   </g>
   <g id="text_7">
    <!-- ? -->
    <g transform="translate(162.373738 145.222875) scale(0.18 -0.18)">
     <use xlink:href="#DejaVuSans-3f"/>
    </g>
   </g>
   <g id="text_8">
    <!-- ? -->
    <g transform="translate(199.5922 145.222875) scale(0.18 -0.18)">
     <use xlink:href="#DejaVuSans-3f"/>
    </g>
   </g>
   <g id="text_9">
    <!-- ? -->
    <g transform="translate(236.810661 145.222875) scale(0.18 -0.18)">
     <use xlink:href="#DejaVuSans-3f"/>
    </g>
   </g>
  </g>
 </g>
 <defs>
  <clipPath id="pc3057b4a3c">
   <rect x="7.2" y="7.2" width="357.12" height="266.112"/>
  </clipPath>
 </defs>
</svg>
