<?xml version="1.0" encoding="utf-8" standalone="no"?>
<!DOCTYPE svg PUBLIC "-//W3C//DTD SVG 1.1//EN"
  "http://www.w3.org/Graphics/SVG/1.1/DTD/svg11.dtd">
<svg xmlns:xlink="http://www.w3.org/1999/xlink" width="371.52pt" height="280.512pt" viewBox="0 0 371.52 280.512" xmlns="http://www.w3.org/2000/svg" version="1.1">
 <metadata>
  <rdf:RDF xmlns:dc="http://purl.org/dc/elements/1.1/" xmlns:cc="http://creativecommons.org/ns#" xmlns:rdf="http://www.w3.org/1999/02/22-rdf-syntax-ns#">
   <cc:Work>
    <dc:type rdf:resource="http://purl.org/dc/dcmitype/StillImage"/>
    <dc:date>2025-02-03T16:00:51.100301</dc:date>
    <dc:format>image/svg+xml</dc:format>
    <dc:creator>
     <cc:Agent>
      <dc:title>Matplotlib v3.9.2, https://matplotlib.org/</dc:title>
     </cc:Agent>
    </dc:creator>
   </cc:Work>
  </rdf:RDF>
 </metadata>
 <defs>
  <style type="text/css">*{stroke-linejoin: round; stroke-linecap: butt}</style>
 </defs>
 <g id="figure_1">
  <g id="patch_1">
   <path d="M 0 280.512 
L 371.52 280.512 
L 371.52 0 
L 0 0 
z
" style="fill: #ffffff"/>
  </g>
  <g id="axes_1">
   <g id="patch_2">
    <path d="M 84.96 59.616 
C 90.306494 59.616 95.43473 57.491815 99.215273 53.711273 
C 102.995815 49.93073 105.12 44.802494 105.12 39.456 
C 105.12 34.109506 102.995815 28.98127 99.215273 25.200727 
C 95.43473 21.420185 90.306494 19.296 84.96 19.296 
C 79.613506 19.296 74.48527 21.420185 70.704727 25.200727 
C 66.924185 28.98127 64.8 34.109506 64.8 39.456 
C 64.8 44.802494 66.924185 49.93073 70.704727 53.711273 
C 74.48527 57.491815 79.613506 59.616 84.96 59.616 
z
" clip-path="url(#pa10c2dec18)" style="fill: #ffff77; stroke: #000000; stroke-width: 0.7; stroke-linejoin: miter"/>
   </g>
   <g id="patch_3">
    <path d="M 84.96 126.816 
C 90.306494 126.816 95.43473 124.691815 99.215273 120.911273 
C 102.995815 117.13073 105.12 112.002494 105.12 106.656 
C 105.12 101.309506 102.995815 96.18127 99.215273 92.400727 
C 95.43473 88.620185 90.306494 86.496 84.96 86.496 
C 79.613506 86.496 74.48527 88.620185 70.704727 92.400727 
C 66.924185 96.18127 64.8 101.309506 64.8 106.656 
C 64.8 112.002494 66.924185 117.13073 70.704727 120.911273 
C 74.48527 124.691815 79.613506 126.816 84.96 126.816 
z
" clip-path="url(#pa10c2dec18)" style="fill: #ffff77; stroke: #000000; stroke-width: 0.7; stroke-linejoin: miter"/>
   </g>
   <g id="patch_4">
    <path d="M 84.96 194.016 
C 90.306494 194.016 95.43473 191.891815 99.215273 188.111273 
C 102.995815 184.33073 105.12 179.202494 105.12 173.856 
C 105.12 168.509506 102.995815 163.38127 99.215273 159.600727 
C 95.43473 155.820185 90.306494 153.696 84.96 153.696 
C 79.613506 153.696 74.48527 155.820185 70.704727 159.600727 
C 66.924185 163.38127 64.8 168.509506 64.8 173.856 
C 64.8 179.202494 66.924185 184.33073 70.704727 188.111273 
C 74.48527 191.891815 79.613506 194.016 84.96 194.016 
z
" clip-path="url(#pa10c2dec18)" style="fill: #ffff77; stroke: #000000; stroke-width: 0.7; stroke-linejoin: miter"/>
   </g>
   <g id="patch_5">
    <path d="M 84.96 261.216 
C 90.306494 261.216 95.43473 259.091815 99.215273 255.311273 
C 102.995815 251.53073 105.12 246.402494 105.12 241.056 
C 105.12 235.709506 102.995815 230.58127 99.215273 226.800727 
C 95.43473 223.020185 90.306494 220.896 84.96 220.896 
C 79.613506 220.896 74.48527 223.020185 70.704727 226.800727 
C 66.924185 230.58127 64.8 235.709506 64.8 241.056 
C 64.8 246.402494 66.924185 251.53073 70.704727 255.311273 
C 74.48527 259.091815 79.613506 261.216 84.96 261.216 
z
" clip-path="url(#pa10c2dec18)" style="fill: #ffff77; stroke: #000000; stroke-width: 0.7; stroke-linejoin: miter"/>
   </g>
   <g id="patch_6">
    <path d="M 286.56 93.216 
C 291.906494 93.216 297.03473 91.091815 300.815273 87.311273 
C 304.595815 83.53073 306.72 78.402494 306.72 73.056 
C 306.72 67.709506 304.595815 62.58127 300.815273 58.800727 
C 297.03473 55.020185 291.906494 52.896 286.56 52.896 
C 281.213506 52.896 276.08527 55.020185 272.304727 58.800727 
C 268.524185 62.58127 266.4 67.709506 266.4 73.056 
C 266.4 78.402494 268.524185 83.53073 272.304727 87.311273 
C 276.08527 91.091815 281.213506 93.216 286.56 93.216 
z
" clip-path="url(#pa10c2dec18)" style="fill: #ff6644; stroke: #000000; stroke-width: 0.7; stroke-linejoin: miter"/>
   </g>
   <g id="patch_7">
    <path d="M 286.56 160.416 
C 291.906494 160.416 297.03473 158.291815 300.815273 154.511273 
C 304.595815 150.73073 306.72 145.602494 306.72 140.256 
C 306.72 134.909506 304.595815 129.78127 300.815273 126.000727 
C 297.03473 122.220185 291.906494 120.096 286.56 120.096 
C 281.213506 120.096 276.08527 122.220185 272.304727 126.000727 
C 268.524185 129.78127 266.4 134.909506 266.4 140.256 
C 266.4 145.602494 268.524185 150.73073 272.304727 154.511273 
C 276.08527 158.291815 281.213506 160.416 286.56 160.416 
z
" clip-path="url(#pa10c2dec18)" style="fill: #ff6644; stroke: #000000; stroke-width: 0.7; stroke-linejoin: miter"/>
   </g>
   <g id="patch_8">
    <path d="M 286.56 227.616 
C 291.906494 227.616 297.03473 225.491815 300.815273 221.711273 
C 304.595815 217.93073 306.72 212.802494 306.72 207.456 
C 306.72 202.109506 304.595815 196.98127 300.815273 193.200727 
C 297.03473 189.420185 291.906494 187.296 286.56 187.296 
C 281.213506 187.296 276.08527 189.420185 272.304727 193.200727 
C 268.524185 196.98127 266.4 202.109506 266.4 207.456 
C 266.4 212.802494 268.524185 217.93073 272.304727 221.711273 
C 276.08527 225.491815 281.213506 227.616 286.56 227.616 
z
" clip-path="url(#pa10c2dec18)" style="fill: #ff6644; stroke: #000000; stroke-width: 0.7; stroke-linejoin: miter"/>
   </g>
   <g id="patch_9">
    <path d="M 264.811393 70.104456 
L 256.404526 71.360651 
L 256.868354 68.712971 
L 256.868353 68.712971 
L 256.868353 68.712971 
L 256.868354 68.712971 
L 257.332182 66.065291 
z
" clip-path="url(#pa10c2dec18)" style="fill: #ffd077; stroke: #ffd077; stroke-width: 2; stroke-linejoin: miter"/>
   </g>
   <g id="line2d_1">
    <path d="M 105.12 42.129247 
L 258.456961 68.991268 
" clip-path="url(#pa10c2dec18)" style="fill: none; stroke: #ffd077; stroke-width: 2"/>
   </g>
   <g id="patch_10">
    <path d="M 264.811393 76.007544 
L 257.332182 80.046709 
L 256.868354 77.399029 
L 256.868353 77.399029 
L 256.868353 77.399029 
L 256.868354 77.399029 
L 256.404526 74.751349 
z
" clip-path="url(#pa10c2dec18)" style="fill: #ffd077; stroke: #ffd077; stroke-width: 2; stroke-linejoin: miter"/>
   </g>
   <g id="line2d_2">
    <path d="M 105.12 103.982753 
L 258.456961 77.120732 
" clip-path="url(#pa10c2dec18)" style="fill: none; stroke: #ffd077; stroke-width: 2"/>
   </g>
   <g id="patch_11">
    <path d="M 267.071571 84.231468 
L 260.976394 90.156184 
L 259.808497 87.73516 
L 259.808496 87.73516 
L 259.808496 87.73516 
L 259.808497 87.73516 
L 258.6406 85.314135 
z
" clip-path="url(#pa10c2dec18)" style="fill: #ffd077; stroke: #ffd077; stroke-width: 2; stroke-linejoin: miter"/>
   </g>
   <g id="line2d_3">
    <path d="M 102.995815 163.38127 
L 261.261111 87.034422 
" clip-path="url(#pa10c2dec18)" style="fill: none; stroke: #ffd077; stroke-width: 2"/>
   </g>
   <g id="patch_12">
    <path d="M 269.183298 86.462813 
L 264.763859 93.723805 
L 263.027505 91.671874 
L 263.027505 91.671874 
L 263.027505 91.671874 
L 263.027505 91.671874 
L 261.291152 89.619943 
z
" clip-path="url(#pa10c2dec18)" style="fill: #ffd077; stroke: #ffd077; stroke-width: 2; stroke-linejoin: miter"/>
   </g>
   <g id="line2d_4">
    <path d="M 101.105544 228.690999 
L 264.258663 90.630062 
" clip-path="url(#pa10c2dec18)" style="fill: none; stroke: #ffd077; stroke-width: 2"/>
   </g>
   <g id="patch_13">
    <path d="M 267.797878 129.430901 
L 263.582392 128.889567 
L 264.166341 127.679055 
L 264.16634 127.679055 
L 264.16634 127.679055 
L 264.166341 127.679055 
L 264.75029 126.468543 
z
" clip-path="url(#pa10c2dec18)" style="fill: #808080; stroke: #808080; stroke-linejoin: miter"/>
   </g>
   <g id="line2d_5">
    <path d="M 102.995815 49.93073 
L 264.892648 128.029424 
" clip-path="url(#pa10c2dec18)" style="fill: none; stroke: #808080"/>
   </g>
   <g id="patch_14">
    <path d="M 265.605697 137.443604 
L 261.402263 138.071702 
L 261.634177 136.747862 
L 261.634177 136.747862 
L 261.634177 136.747862 
L 261.634177 136.747862 
L 261.866092 135.424022 
z
" clip-path="url(#pa10c2dec18)" style="fill: #808080; stroke: #808080; stroke-linejoin: miter"/>
   </g>
   <g id="line2d_6">
    <path d="M 105.12 109.329247 
L 262.428481 136.88701 
" clip-path="url(#pa10c2dec18)" style="fill: none; stroke: #808080"/>
   </g>
   <g id="patch_15">
    <path d="M 265.605697 143.068396 
L 261.866092 145.087978 
L 261.634177 143.764138 
L 261.634177 143.764138 
L 261.634177 143.764138 
L 261.634177 143.764138 
L 261.402263 142.440298 
z
" clip-path="url(#pa10c2dec18)" style="fill: #808080; stroke: #808080; stroke-linejoin: miter"/>
   </g>
   <g id="line2d_7">
    <path d="M 105.12 171.182753 
L 262.428481 143.62499 
" clip-path="url(#pa10c2dec18)" style="fill: none; stroke: #808080"/>
   </g>
   <g id="patch_16">
    <path d="M 267.797878 151.081099 
L 264.75029 154.043457 
L 264.166341 152.832945 
L 264.16634 152.832945 
L 264.16634 152.832945 
L 264.166341 152.832945 
L 263.582392 151.622433 
z
" clip-path="url(#pa10c2dec18)" style="fill: #808080; stroke: #808080; stroke-linejoin: miter"/>
   </g>
   <g id="line2d_8">
    <path d="M 102.995815 230.58127 
L 264.892648 152.482576 
" clip-path="url(#pa10c2dec18)" style="fill: none; stroke: #808080"/>
   </g>
   <g id="patch_17">
    <path d="M 269.798877 194.570093 
L 265.852804 192.991528 
L 266.720981 191.965563 
L 266.72098 191.965562 
L 266.72098 191.965562 
L 266.720981 191.965563 
L 267.589158 190.939597 
z
" clip-path="url(#pa10c2dec18)" style="fill: #808080; stroke: #808080; stroke-linejoin: miter"/>
   </g>
   <g id="line2d_9">
    <path d="M 101.105544 51.821001 
L 267.33656 192.486468 
" clip-path="url(#pa10c2dec18)" style="fill: none; stroke: #808080"/>
   </g>
   <g id="patch_18">
    <path d="M 267.797878 196.630901 
L 263.582392 196.089567 
L 264.166341 194.879055 
L 264.16634 194.879055 
L 264.16634 194.879055 
L 264.166341 194.879055 
L 264.75029 193.668543 
z
" clip-path="url(#pa10c2dec18)" style="fill: #808080; stroke: #808080; stroke-linejoin: miter"/>
   </g>
   <g id="line2d_10">
    <path d="M 102.995815 117.13073 
L 264.892648 195.229424 
" clip-path="url(#pa10c2dec18)" style="fill: none; stroke: #808080"/>
   </g>
   <g id="patch_19">
    <path d="M 265.605697 204.643604 
L 261.402263 205.271702 
L 261.634177 203.947862 
L 261.634177 203.947862 
L 261.634177 203.947862 
L 261.634177 203.947862 
L 261.866092 202.624022 
z
" clip-path="url(#pa10c2dec18)" style="fill: #808080; stroke: #808080; stroke-linejoin: miter"/>
   </g>
   <g id="line2d_11">
    <path d="M 105.12 176.529247 
L 262.428481 204.08701 
" clip-path="url(#pa10c2dec18)" style="fill: none; stroke: #808080"/>
   </g>
   <g id="patch_20">
    <path d="M 265.605697 210.268396 
L 261.866092 212.287978 
L 261.634177 210.964138 
L 261.634177 210.964138 
L 261.634177 210.964138 
L 261.634177 210.964138 
L 261.402263 209.640298 
z
" clip-path="url(#pa10c2dec18)" style="fill: #808080; stroke: #808080; stroke-linejoin: miter"/>
   </g>
   <g id="line2d_12">
    <path d="M 105.12 238.382753 
L 262.428481 210.82499 
" clip-path="url(#pa10c2dec18)" style="fill: none; stroke: #808080"/>
   </g>
   <g id="text_1">
    <!-- ? -->
    <g transform="translate(180.982969 61.222875) scale(0.18 -0.18)">
     <defs>
      <path id="DejaVuSans-3f" d="M 1222 794 
L 1856 794 
L 1856 0 
L 1222 0 
L 1222 794 
z
M 1838 1253 
L 1241 1253 
L 1241 1734 
Q 1241 2050 1328 2253 
Q 1416 2456 1697 2725 
L 1978 3003 
Q 2156 3169 2236 3316 
Q 2316 3463 2316 3616 
Q 2316 3894 2111 4066 
Q 1906 4238 1569 4238 
Q 1322 4238 1042 4128 
Q 763 4019 459 3809 
L 459 4397 
Q 753 4575 1054 4662 
Q 1356 4750 1678 4750 
Q 2253 4750 2601 4447 
Q 2950 4144 2950 3647 
Q 2950 3409 2837 3195 
Q 2725 2981 2444 2713 
L 2169 2444 
Q 2022 2297 1961 2214 
Q 1900 2131 1875 2053 
Q 1856 1988 1847 1894 
Q 1838 1800 1838 1638 
L 1838 1253 
z
" transform="scale(0.015625)"/>
     </defs>
     <use xlink:href="#DejaVuSans-3f"/>
    </g>
   </g>
   <g id="text_2">
    <!-- ? -->
    <g transform="translate(180.982969 94.822875) scale(0.18 -0.18)">
     <use xlink:href="#DejaVuSans-3f"/>
    </g>
   </g>
   <g id="text_3">
    <!-- ? -->
    <g transform="translate(180.982969 128.422875) scale(0.18 -0.18)">
     <use xlink:href="#DejaVuSans-3f"/>
    </g>
   </g>
   <g id="text_4">
    <!-- ? -->
    <g transform="translate(180.982969 162.022875) scale(0.18 -0.18)">
     <use xlink:href="#DejaVuSans-3f"/>
    </g>
   </g>
  </g>
 </g>
 <defs>
  <clipPath id="pa10c2dec18">
   <rect x="7.2" y="7.2" width="357.12" height="266.112"/>
  </clipPath>
 </defs>
</svg>
