<?xml version="1.0" encoding="utf-8" standalone="no"?>
<!DOCTYPE svg PUBLIC "-//W3C//DTD SVG 1.1//EN"
  "http://www.w3.org/Graphics/SVG/1.1/DTD/svg11.dtd">
<svg xmlns:xlink="http://www.w3.org/1999/xlink" width="349.2pt" height="457.92pt" viewBox="0 0 349.2 457.92" xmlns="http://www.w3.org/2000/svg" version="1.1">
 <metadata>
  <rdf:RDF xmlns:dc="http://purl.org/dc/elements/1.1/" xmlns:cc="http://creativecommons.org/ns#" xmlns:rdf="http://www.w3.org/1999/02/22-rdf-syntax-ns#">
   <cc:Work>
    <dc:type rdf:resource="http://purl.org/dc/dcmitype/StillImage"/>
    <dc:date>2025-03-12T22:53:37.733854</dc:date>
    <dc:format>image/svg+xml</dc:format>
    <dc:creator>
     <cc:Agent>
      <dc:title>Matplotlib v3.9.2, https://matplotlib.org/</dc:title>
     </cc:Agent>
    </dc:creator>
   </cc:Work>
  </rdf:RDF>
 </metadata>
 <defs>
  <style type="text/css">*{stroke-linejoin: round; stroke-linecap: butt}</style>
 </defs>
 <g id="figure_1">
  <g id="patch_1">
   <path d="M 0 457.92 
L 349.2 457.92 
L 349.2 0 
L 0 0 
z
" style="fill: #ffffff"/>
  </g>
  <g id="axes_1">
   <g id="patch_2">
    <path d="M 114.52823 60.759043 
C 117.714474 60.759043 120.770646 59.493135 123.023661 57.24012 
C 125.276676 54.987106 126.542584 51.930933 126.542584 48.744689 
C 126.542584 45.558445 125.276676 42.502272 123.023661 40.249258 
C 120.770646 37.996243 117.714474 36.730335 114.52823 36.730335 
C 111.341986 36.730335 108.285813 37.996243 106.032798 40.249258 
C 103.779784 42.502272 102.513876 45.558445 102.513876 48.744689 
C 102.513876 51.930933 103.779784 54.987106 106.032798 57.24012 
C 108.285813 59.493135 111.341986 60.759043 114.52823 60.759043 
z
" clip-path="url(#p31580c07ef)" style="fill: #ffff77; stroke: #000000; stroke-width: 0.7; stroke-linejoin: miter"/>
   </g>
   <g id="patch_3">
    <path d="M 154.576077 60.759043 
C 157.76232 60.759043 160.818493 59.493135 163.071508 57.24012 
C 165.324522 54.987106 166.590431 51.930933 166.590431 48.744689 
C 166.590431 45.558445 165.324522 42.502272 163.071508 40.249258 
C 160.818493 37.996243 157.76232 36.730335 154.576077 36.730335 
C 151.389833 36.730335 148.33366 37.996243 146.080645 40.249258 
C 143.827631 42.502272 142.561722 45.558445 142.561722 48.744689 
C 142.561722 51.930933 143.827631 54.987106 146.080645 57.24012 
C 148.33366 59.493135 151.389833 60.759043 154.576077 60.759043 
z
" clip-path="url(#p31580c07ef)" style="fill: #ffff77; stroke: #000000; stroke-width: 0.7; stroke-linejoin: miter"/>
   </g>
   <g id="patch_4">
    <path d="M 194.623923 60.759043 
C 197.810167 60.759043 200.86634 59.493135 203.119355 57.24012 
C 205.372369 54.987106 206.638278 51.930933 206.638278 48.744689 
C 206.638278 45.558445 205.372369 42.502272 203.119355 40.249258 
C 200.86634 37.996243 197.810167 36.730335 194.623923 36.730335 
C 191.43768 36.730335 188.381507 37.996243 186.128492 40.249258 
C 183.875478 42.502272 182.609569 45.558445 182.609569 48.744689 
C 182.609569 51.930933 183.875478 54.987106 186.128492 57.24012 
C 188.381507 59.493135 191.43768 60.759043 194.623923 60.759043 
z
" clip-path="url(#p31580c07ef)" style="fill: #ffff77; stroke: #000000; stroke-width: 0.7; stroke-linejoin: miter"/>
   </g>
   <g id="patch_5">
    <path d="M 234.67177 60.759043 
C 237.858014 60.759043 240.914187 59.493135 243.167202 57.24012 
C 245.420216 54.987106 246.686124 51.930933 246.686124 48.744689 
C 246.686124 45.558445 245.420216 42.502272 243.167202 40.249258 
C 240.914187 37.996243 237.858014 36.730335 234.67177 36.730335 
C 231.485526 36.730335 228.429354 37.996243 226.176339 40.249258 
C 223.923324 42.502272 222.657416 45.558445 222.657416 48.744689 
C 222.657416 51.930933 223.923324 54.987106 226.176339 57.24012 
C 228.429354 59.493135 231.485526 60.759043 234.67177 60.759043 
z
" clip-path="url(#p31580c07ef)" style="fill: #ffff77; stroke: #000000; stroke-width: 0.7; stroke-linejoin: miter"/>
   </g>
   <g id="patch_6">
    <path d="M 34.432536 180.902584 
C 37.61878 180.902584 40.674952 179.636676 42.927967 177.383661 
C 45.180982 175.130646 46.44689 172.074474 46.44689 168.88823 
C 46.44689 165.701986 45.180982 162.645813 42.927967 160.392798 
C 40.674952 158.139784 37.61878 156.873876 34.432536 156.873876 
C 31.246292 156.873876 28.190119 158.139784 25.937105 160.392798 
C 23.68409 162.645813 22.418182 165.701986 22.418182 168.88823 
C 22.418182 172.074474 23.68409 175.130646 25.937105 177.383661 
C 28.190119 179.636676 31.246292 180.902584 34.432536 180.902584 
z
" clip-path="url(#p31580c07ef)" style="fill: #55cc77; stroke: #000000; stroke-width: 0.7; stroke-linejoin: miter"/>
   </g>
   <g id="patch_7">
    <path d="M 74.480383 180.902584 
C 77.666627 180.902584 80.722799 179.636676 82.975814 177.383661 
C 85.228829 175.130646 86.494737 172.074474 86.494737 168.88823 
C 86.494737 165.701986 85.228829 162.645813 82.975814 160.392798 
C 80.722799 158.139784 77.666627 156.873876 74.480383 156.873876 
C 71.294139 156.873876 68.237966 158.139784 65.984952 160.392798 
C 63.731937 162.645813 62.466029 165.701986 62.466029 168.88823 
C 62.466029 172.074474 63.731937 175.130646 65.984952 177.383661 
C 68.237966 179.636676 71.294139 180.902584 74.480383 180.902584 
z
" clip-path="url(#p31580c07ef)" style="fill: #55cc77; stroke: #000000; stroke-width: 0.7; stroke-linejoin: miter"/>
   </g>
   <g id="patch_8">
    <path d="M 114.52823 180.902584 
C 117.714474 180.902584 120.770646 179.636676 123.023661 177.383661 
C 125.276676 175.130646 126.542584 172.074474 126.542584 168.88823 
C 126.542584 165.701986 125.276676 162.645813 123.023661 160.392798 
C 120.770646 158.139784 117.714474 156.873876 114.52823 156.873876 
C 111.341986 156.873876 108.285813 158.139784 106.032798 160.392798 
C 103.779784 162.645813 102.513876 165.701986 102.513876 168.88823 
C 102.513876 172.074474 103.779784 175.130646 106.032798 177.383661 
C 108.285813 179.636676 111.341986 180.902584 114.52823 180.902584 
z
" clip-path="url(#p31580c07ef)" style="fill: #55cc77; stroke: #000000; stroke-width: 0.7; stroke-linejoin: miter"/>
   </g>
   <g id="patch_9">
    <path d="M 154.576077 180.902584 
C 157.76232 180.902584 160.818493 179.636676 163.071508 177.383661 
C 165.324522 175.130646 166.590431 172.074474 166.590431 168.88823 
C 166.590431 165.701986 165.324522 162.645813 163.071508 160.392798 
C 160.818493 158.139784 157.76232 156.873876 154.576077 156.873876 
C 151.389833 156.873876 148.33366 158.139784 146.080645 160.392798 
C 143.827631 162.645813 142.561722 165.701986 142.561722 168.88823 
C 142.561722 172.074474 143.827631 175.130646 146.080645 177.383661 
C 148.33366 179.636676 151.389833 180.902584 154.576077 180.902584 
z
" clip-path="url(#p31580c07ef)" style="fill: #55cc77; stroke: #000000; stroke-width: 0.7; stroke-linejoin: miter"/>
   </g>
   <g id="patch_10">
    <path d="M 194.623923 180.902584 
C 197.810167 180.902584 200.86634 179.636676 203.119355 177.383661 
C 205.372369 175.130646 206.638278 172.074474 206.638278 168.88823 
C 206.638278 165.701986 205.372369 162.645813 203.119355 160.392798 
C 200.86634 158.139784 197.810167 156.873876 194.623923 156.873876 
C 191.43768 156.873876 188.381507 158.139784 186.128492 160.392798 
C 183.875478 162.645813 182.609569 165.701986 182.609569 168.88823 
C 182.609569 172.074474 183.875478 175.130646 186.128492 177.383661 
C 188.381507 179.636676 191.43768 180.902584 194.623923 180.902584 
z
" clip-path="url(#p31580c07ef)" style="fill: #55cc77; stroke: #000000; stroke-width: 0.7; stroke-linejoin: miter"/>
   </g>
   <g id="patch_11">
    <path d="M 234.67177 180.902584 
C 237.858014 180.902584 240.914187 179.636676 243.167202 177.383661 
C 245.420216 175.130646 246.686124 172.074474 246.686124 168.88823 
C 246.686124 165.701986 245.420216 162.645813 243.167202 160.392798 
C 240.914187 158.139784 237.858014 156.873876 234.67177 156.873876 
C 231.485526 156.873876 228.429354 158.139784 226.176339 160.392798 
C 223.923324 162.645813 222.657416 165.701986 222.657416 168.88823 
C 222.657416 172.074474 223.923324 175.130646 226.176339 177.383661 
C 228.429354 179.636676 231.485526 180.902584 234.67177 180.902584 
z
" clip-path="url(#p31580c07ef)" style="fill: #55cc77; stroke: #000000; stroke-width: 0.7; stroke-linejoin: miter"/>
   </g>
   <g id="patch_12">
    <path d="M 274.719617 180.902584 
C 277.905861 180.902584 280.962034 179.636676 283.215048 177.383661 
C 285.468063 175.130646 286.733971 172.074474 286.733971 168.88823 
C 286.733971 165.701986 285.468063 162.645813 283.215048 160.392798 
C 280.962034 158.139784 277.905861 156.873876 274.719617 156.873876 
C 271.533373 156.873876 268.477201 158.139784 266.224186 160.392798 
C 263.971171 162.645813 262.705263 165.701986 262.705263 168.88823 
C 262.705263 172.074474 263.971171 175.130646 266.224186 177.383661 
C 268.477201 179.636676 271.533373 180.902584 274.719617 180.902584 
z
" clip-path="url(#p31580c07ef)" style="fill: #55cc77; stroke: #000000; stroke-width: 0.7; stroke-linejoin: miter"/>
   </g>
   <g id="patch_13">
    <path d="M 314.767464 180.902584 
C 317.953708 180.902584 321.009881 179.636676 323.262895 177.383661 
C 325.51591 175.130646 326.781818 172.074474 326.781818 168.88823 
C 326.781818 165.701986 325.51591 162.645813 323.262895 160.392798 
C 321.009881 158.139784 317.953708 156.873876 314.767464 156.873876 
C 311.58122 156.873876 308.525048 158.139784 306.272033 160.392798 
C 304.019018 162.645813 302.75311 165.701986 302.75311 168.88823 
C 302.75311 172.074474 304.019018 175.130646 306.272033 177.383661 
C 308.525048 179.636676 311.58122 180.902584 314.767464 180.902584 
z
" clip-path="url(#p31580c07ef)" style="fill: #55cc77; stroke: #000000; stroke-width: 0.7; stroke-linejoin: miter"/>
   </g>
   <g id="patch_14">
    <path d="M 114.52823 301.046124 
C 117.714474 301.046124 120.770646 299.780216 123.023661 297.527202 
C 125.276676 295.274187 126.542584 292.218014 126.542584 289.03177 
C 126.542584 285.845526 125.276676 282.789354 123.023661 280.536339 
C 120.770646 278.283324 117.714474 277.017416 114.52823 277.017416 
C 111.341986 277.017416 108.285813 278.283324 106.032798 280.536339 
C 103.779784 282.789354 102.513876 285.845526 102.513876 289.03177 
C 102.513876 292.218014 103.779784 295.274187 106.032798 297.527202 
C 108.285813 299.780216 111.341986 301.046124 114.52823 301.046124 
z
" clip-path="url(#p31580c07ef)" style="fill: #55cc77; stroke: #000000; stroke-width: 0.7; stroke-linejoin: miter"/>
   </g>
   <g id="patch_15">
    <path d="M 154.576077 301.046124 
C 157.76232 301.046124 160.818493 299.780216 163.071508 297.527202 
C 165.324522 295.274187 166.590431 292.218014 166.590431 289.03177 
C 166.590431 285.845526 165.324522 282.789354 163.071508 280.536339 
C 160.818493 278.283324 157.76232 277.017416 154.576077 277.017416 
C 151.389833 277.017416 148.33366 278.283324 146.080645 280.536339 
C 143.827631 282.789354 142.561722 285.845526 142.561722 289.03177 
C 142.561722 292.218014 143.827631 295.274187 146.080645 297.527202 
C 148.33366 299.780216 151.389833 301.046124 154.576077 301.046124 
z
" clip-path="url(#p31580c07ef)" style="fill: #55cc77; stroke: #000000; stroke-width: 0.7; stroke-linejoin: miter"/>
   </g>
   <g id="patch_16">
    <path d="M 194.623923 301.046124 
C 197.810167 301.046124 200.86634 299.780216 203.119355 297.527202 
C 205.372369 295.274187 206.638278 292.218014 206.638278 289.03177 
C 206.638278 285.845526 205.372369 282.789354 203.119355 280.536339 
C 200.86634 278.283324 197.810167 277.017416 194.623923 277.017416 
C 191.43768 277.017416 188.381507 278.283324 186.128492 280.536339 
C 183.875478 282.789354 182.609569 285.845526 182.609569 289.03177 
C 182.609569 292.218014 183.875478 295.274187 186.128492 297.527202 
C 188.381507 299.780216 191.43768 301.046124 194.623923 301.046124 
z
" clip-path="url(#p31580c07ef)" style="fill: #55cc77; stroke: #000000; stroke-width: 0.7; stroke-linejoin: miter"/>
   </g>
   <g id="patch_17">
    <path d="M 234.67177 301.046124 
C 237.858014 301.046124 240.914187 299.780216 243.167202 297.527202 
C 245.420216 295.274187 246.686124 292.218014 246.686124 289.03177 
C 246.686124 285.845526 245.420216 282.789354 243.167202 280.536339 
C 240.914187 278.283324 237.858014 277.017416 234.67177 277.017416 
C 231.485526 277.017416 228.429354 278.283324 226.176339 280.536339 
C 223.923324 282.789354 222.657416 285.845526 222.657416 289.03177 
C 222.657416 292.218014 223.923324 295.274187 226.176339 297.527202 
C 228.429354 299.780216 231.485526 301.046124 234.67177 301.046124 
z
" clip-path="url(#p31580c07ef)" style="fill: #55cc77; stroke: #000000; stroke-width: 0.7; stroke-linejoin: miter"/>
   </g>
   <g id="patch_18">
    <path d="M 154.576077 421.189665 
C 157.76232 421.189665 160.818493 419.923757 163.071508 417.670742 
C 165.324522 415.417728 166.590431 412.361555 166.590431 409.175311 
C 166.590431 405.989067 165.324522 402.932894 163.071508 400.67988 
C 160.818493 398.426865 157.76232 397.160957 154.576077 397.160957 
C 151.389833 397.160957 148.33366 398.426865 146.080645 400.67988 
C 143.827631 402.932894 142.561722 405.989067 142.561722 409.175311 
C 142.561722 412.361555 143.827631 415.417728 146.080645 417.670742 
C 148.33366 419.923757 151.389833 421.189665 154.576077 421.189665 
z
" clip-path="url(#p31580c07ef)" style="fill: #ff6644; stroke: #000000; stroke-width: 0.7; stroke-linejoin: miter"/>
   </g>
   <g id="patch_19">
    <path d="M 194.623923 421.189665 
C 197.810167 421.189665 200.86634 419.923757 203.119355 417.670742 
C 205.372369 415.417728 206.638278 412.361555 206.638278 409.175311 
C 206.638278 405.989067 205.372369 402.932894 203.119355 400.67988 
C 200.86634 398.426865 197.810167 397.160957 194.623923 397.160957 
C 191.43768 397.160957 188.381507 398.426865 186.128492 400.67988 
C 183.875478 402.932894 182.609569 405.989067 182.609569 409.175311 
C 182.609569 412.361555 183.875478 415.417728 186.128492 417.670742 
C 188.381507 419.923757 191.43768 421.189665 194.623923 421.189665 
z
" clip-path="url(#p31580c07ef)" style="fill: #ff6644; stroke: #000000; stroke-width: 0.7; stroke-linejoin: miter"/>
   </g>
   <g id="patch_20">
    <path d="M 41.218331 157.346975 
L 42.613876 152.4773 
L 43.935224 153.382931 
L 43.935224 153.382931 
L 43.935224 153.382931 
L 43.935224 153.382931 
L 45.256572 154.288563 
z
" clip-path="url(#p31580c07ef)" style="stroke: #000000; stroke-width: 2; stroke-linejoin: miter"/>
   </g>
   <g id="line2d_1">
    <path d="M 108.285813 59.493135 
L 43.391846 154.17574 
" clip-path="url(#p31580c07ef)" style="fill: none; stroke: #000000; stroke-width: 2"/>
   </g>
   <g id="patch_21">
    <path d="M 77.984438 155.966792 
L 78.061688 150.901684 
L 79.573495 151.43137 
L 79.573495 151.43137 
L 79.573495 151.43137 
L 79.573495 151.43137 
L 81.085302 151.961056 
z
" clip-path="url(#p31580c07ef)" style="stroke: #000000; stroke-width: 2; stroke-linejoin: miter"/>
   </g>
   <g id="line2d_2">
    <path d="M 111.341986 60.759043 
L 79.255684 152.338454 
" clip-path="url(#p31580c07ef)" style="fill: none; stroke: #000000; stroke-width: 2"/>
   </g>
   <g id="patch_22">
    <path d="M 114.52823 155.912728 
L 112.926316 151.106986 
L 114.52823 151.106986 
L 114.52823 151.106986 
L 114.52823 151.106986 
L 114.52823 151.106986 
L 116.130144 151.106986 
z
" clip-path="url(#p31580c07ef)" style="stroke: #000000; stroke-width: 2; stroke-linejoin: miter"/>
   </g>
   <g id="line2d_3">
    <path d="M 114.52823 60.759043 
L 114.52823 152.068134 
" clip-path="url(#p31580c07ef)" style="fill: none; stroke: #000000; stroke-width: 2"/>
   </g>
   <g id="patch_23">
    <path d="M 151.072021 155.966792 
L 147.971157 151.961056 
L 149.482964 151.43137 
L 149.482964 151.43137 
L 149.482964 151.43137 
L 149.482964 151.43137 
L 150.994771 150.901684 
z
" clip-path="url(#p31580c07ef)" style="stroke: #000000; stroke-width: 2; stroke-linejoin: miter"/>
   </g>
   <g id="line2d_4">
    <path d="M 117.714474 60.759043 
L 149.800776 152.338454 
" clip-path="url(#p31580c07ef)" style="fill: none; stroke: #000000; stroke-width: 2"/>
   </g>
   <g id="patch_24">
    <path d="M 187.838128 157.346975 
L 183.799887 154.288563 
L 185.121235 153.382931 
L 185.121235 153.382931 
L 185.121235 153.382931 
L 185.121235 153.382931 
L 186.442583 152.4773 
z
" clip-path="url(#p31580c07ef)" style="stroke: #000000; stroke-width: 2; stroke-linejoin: miter"/>
   </g>
   <g id="line2d_5">
    <path d="M 120.770646 59.493135 
L 185.664614 154.17574 
" clip-path="url(#p31580c07ef)" style="fill: none; stroke: #000000; stroke-width: 2"/>
   </g>
   <g id="patch_25">
    <path d="M 225.496705 159.713164 
L 220.965808 157.447716 
L 222.098532 156.314992 
L 222.098532 156.314991 
L 222.098532 156.314991 
L 222.098532 156.314992 
L 223.231257 155.182268 
z
" clip-path="url(#p31580c07ef)" style="stroke: #000000; stroke-width: 2; stroke-linejoin: miter"/>
   </g>
   <g id="line2d_6">
    <path d="M 123.023661 57.24012 
L 222.778167 156.994626 
" clip-path="url(#p31580c07ef)" style="fill: none; stroke: #000000; stroke-width: 2"/>
   </g>
   <g id="patch_26">
    <path d="M 264.327962 160.943683 
L 259.520004 159.348432 
L 260.479375 158.06557 
L 260.479375 158.06557 
L 260.479375 158.06557 
L 260.479375 158.06557 
L 261.438747 156.782708 
z
" clip-path="url(#p31580c07ef)" style="stroke: #000000; stroke-width: 2; stroke-linejoin: miter"/>
   </g>
   <g id="line2d_7">
    <path d="M 124.150168 56.113613 
L 261.249092 158.641192 
" clip-path="url(#p31580c07ef)" style="fill: none; stroke: #000000; stroke-width: 2"/>
   </g>
   <g id="patch_27">
    <path d="M 303.195682 162.149907 
L 298.252488 161.042606 
L 299.078998 159.670378 
L 299.078997 159.670378 
L 299.078997 159.670378 
L 299.078998 159.670378 
L 299.905508 158.29815 
z
" clip-path="url(#p31580c07ef)" style="stroke: #000000; stroke-width: 2; stroke-linejoin: miter"/>
   </g>
   <g id="line2d_8">
    <path d="M 125.276676 54.987106 
L 299.902334 160.166284 
" clip-path="url(#p31580c07ef)" style="fill: none; stroke: #000000; stroke-width: 2"/>
   </g>
   <g id="patch_28">
    <path d="M 43.607601 159.713164 
L 45.87305 155.182268 
L 47.005774 156.314992 
L 47.005774 156.314991 
L 47.005774 156.314991 
L 47.005774 156.314992 
L 48.138498 157.447716 
z
" clip-path="url(#p31580c07ef)" style="stroke: #000000; stroke-width: 2; stroke-linejoin: miter"/>
   </g>
   <g id="line2d_9">
    <path d="M 146.080645 57.24012 
L 46.32614 156.994626 
" clip-path="url(#p31580c07ef)" style="fill: none; stroke: #000000; stroke-width: 2"/>
   </g>
   <g id="patch_29">
    <path d="M 81.266178 157.346975 
L 82.661723 152.4773 
L 83.983071 153.382931 
L 83.983071 153.382931 
L 83.983071 153.382931 
L 83.983071 153.382931 
L 85.304419 154.288563 
z
" clip-path="url(#p31580c07ef)" style="stroke: #000000; stroke-width: 2; stroke-linejoin: miter"/>
   </g>
   <g id="line2d_10">
    <path d="M 148.33366 59.493135 
L 83.439693 154.17574 
" clip-path="url(#p31580c07ef)" style="fill: none; stroke: #000000; stroke-width: 2"/>
   </g>
   <g id="patch_30">
    <path d="M 118.032285 155.966792 
L 118.109535 150.901684 
L 119.621342 151.43137 
L 119.621342 151.43137 
L 119.621342 151.43137 
L 119.621342 151.43137 
L 121.133149 151.961056 
z
" clip-path="url(#p31580c07ef)" style="stroke: #000000; stroke-width: 2; stroke-linejoin: miter"/>
   </g>
   <g id="line2d_11">
    <path d="M 151.389833 60.759043 
L 119.303531 152.338454 
" clip-path="url(#p31580c07ef)" style="fill: none; stroke: #000000; stroke-width: 2"/>
   </g>
   <g id="patch_31">
    <path d="M 154.576077 155.912728 
L 152.974163 151.106986 
L 154.576077 151.106986 
L 154.576077 151.106986 
L 154.576077 151.106986 
L 154.576077 151.106986 
L 156.17799 151.106986 
z
" clip-path="url(#p31580c07ef)" style="stroke: #000000; stroke-width: 2; stroke-linejoin: miter"/>
   </g>
   <g id="line2d_12">
    <path d="M 154.576077 60.759043 
L 154.576077 152.068134 
" clip-path="url(#p31580c07ef)" style="fill: none; stroke: #000000; stroke-width: 2"/>
   </g>
   <g id="patch_32">
    <path d="M 191.119868 155.966792 
L 188.019004 151.961056 
L 189.530811 151.43137 
L 189.530811 151.43137 
L 189.530811 151.43137 
L 189.530811 151.43137 
L 191.042618 150.901684 
z
" clip-path="url(#p31580c07ef)" style="stroke: #000000; stroke-width: 2; stroke-linejoin: miter"/>
   </g>
   <g id="line2d_13">
    <path d="M 157.76232 60.759043 
L 189.848622 152.338454 
" clip-path="url(#p31580c07ef)" style="fill: none; stroke: #000000; stroke-width: 2"/>
   </g>
   <g id="patch_33">
    <path d="M 227.885975 157.346975 
L 223.847734 154.288563 
L 225.169082 153.382931 
L 225.169082 153.382931 
L 225.169082 153.382931 
L 225.169082 153.382931 
L 226.49043 152.4773 
z
" clip-path="url(#p31580c07ef)" style="stroke: #000000; stroke-width: 2; stroke-linejoin: miter"/>
   </g>
   <g id="line2d_14">
    <path d="M 160.818493 59.493135 
L 225.712461 154.17574 
" clip-path="url(#p31580c07ef)" style="fill: none; stroke: #000000; stroke-width: 2"/>
   </g>
   <g id="patch_34">
    <path d="M 265.544552 159.713164 
L 261.013655 157.447716 
L 262.146379 156.314992 
L 262.146379 156.314991 
L 262.146379 156.314991 
L 262.146379 156.314992 
L 263.279103 155.182268 
z
" clip-path="url(#p31580c07ef)" style="stroke: #000000; stroke-width: 2; stroke-linejoin: miter"/>
   </g>
   <g id="line2d_15">
    <path d="M 163.071508 57.24012 
L 262.826013 156.994626 
" clip-path="url(#p31580c07ef)" style="fill: none; stroke: #000000; stroke-width: 2"/>
   </g>
   <g id="patch_35">
    <path d="M 304.375809 160.943683 
L 299.567851 159.348432 
L 300.527222 158.06557 
L 300.527222 158.06557 
L 300.527222 158.06557 
L 300.527222 158.06557 
L 301.486593 156.782708 
z
" clip-path="url(#p31580c07ef)" style="stroke: #000000; stroke-width: 2; stroke-linejoin: miter"/>
   </g>
   <g id="line2d_16">
    <path d="M 164.198015 56.113613 
L 301.296939 158.641192 
" clip-path="url(#p31580c07ef)" style="fill: none; stroke: #000000; stroke-width: 2"/>
   </g>
   <g id="patch_36">
    <path d="M 44.824191 160.943683 
L 47.713407 156.782708 
L 48.672778 158.06557 
L 48.672778 158.06557 
L 48.672778 158.06557 
L 48.672778 158.06557 
L 49.632149 159.348432 
z
" clip-path="url(#p31580c07ef)" style="stroke: #000000; stroke-width: 2; stroke-linejoin: miter"/>
   </g>
   <g id="line2d_17">
    <path d="M 185.001985 56.113613 
L 47.903061 158.641192 
" clip-path="url(#p31580c07ef)" style="fill: none; stroke: #000000; stroke-width: 2"/>
   </g>
   <g id="patch_37">
    <path d="M 83.655448 159.713164 
L 85.920897 155.182268 
L 87.053621 156.314992 
L 87.053621 156.314991 
L 87.053621 156.314991 
L 87.053621 156.314992 
L 88.186345 157.447716 
z
" clip-path="url(#p31580c07ef)" style="stroke: #000000; stroke-width: 2; stroke-linejoin: miter"/>
   </g>
   <g id="line2d_18">
    <path d="M 186.128492 57.24012 
L 86.373987 156.994626 
" clip-path="url(#p31580c07ef)" style="fill: none; stroke: #000000; stroke-width: 2"/>
   </g>
   <g id="patch_38">
    <path d="M 121.314025 157.346975 
L 122.70957 152.4773 
L 124.030918 153.382931 
L 124.030918 153.382931 
L 124.030918 153.382931 
L 124.030918 153.382931 
L 125.352266 154.288563 
z
" clip-path="url(#p31580c07ef)" style="stroke: #000000; stroke-width: 2; stroke-linejoin: miter"/>
   </g>
   <g id="line2d_19">
    <path d="M 188.381507 59.493135 
L 123.487539 154.17574 
" clip-path="url(#p31580c07ef)" style="fill: none; stroke: #000000; stroke-width: 2"/>
   </g>
   <g id="patch_39">
    <path d="M 158.080132 155.966792 
L 158.157382 150.901684 
L 159.669189 151.43137 
L 159.669189 151.43137 
L 159.669189 151.43137 
L 159.669189 151.43137 
L 161.180996 151.961056 
z
" clip-path="url(#p31580c07ef)" style="stroke: #000000; stroke-width: 2; stroke-linejoin: miter"/>
   </g>
   <g id="line2d_20">
    <path d="M 191.43768 60.759043 
L 159.351378 152.338454 
" clip-path="url(#p31580c07ef)" style="fill: none; stroke: #000000; stroke-width: 2"/>
   </g>
   <g id="patch_40">
    <path d="M 194.623923 155.912728 
L 193.02201 151.106986 
L 194.623923 151.106986 
L 194.623923 151.106986 
L 194.623923 151.106986 
L 194.623923 151.106986 
L 196.225837 151.106986 
z
" clip-path="url(#p31580c07ef)" style="stroke: #000000; stroke-width: 2; stroke-linejoin: miter"/>
   </g>
   <g id="line2d_21">
    <path d="M 194.623923 60.759043 
L 194.623923 152.068134 
" clip-path="url(#p31580c07ef)" style="fill: none; stroke: #000000; stroke-width: 2"/>
   </g>
   <g id="patch_41">
    <path d="M 231.167715 155.966792 
L 228.066851 151.961056 
L 229.578658 151.43137 
L 229.578658 151.43137 
L 229.578658 151.43137 
L 229.578658 151.43137 
L 231.090465 150.901684 
z
" clip-path="url(#p31580c07ef)" style="stroke: #000000; stroke-width: 2; stroke-linejoin: miter"/>
   </g>
   <g id="line2d_22">
    <path d="M 197.810167 60.759043 
L 229.896469 152.338454 
" clip-path="url(#p31580c07ef)" style="fill: none; stroke: #000000; stroke-width: 2"/>
   </g>
   <g id="patch_42">
    <path d="M 267.933822 157.346975 
L 263.895581 154.288563 
L 265.216929 153.382931 
L 265.216929 153.382931 
L 265.216929 153.382931 
L 265.216929 153.382931 
L 266.538277 152.4773 
z
" clip-path="url(#p31580c07ef)" style="stroke: #000000; stroke-width: 2; stroke-linejoin: miter"/>
   </g>
   <g id="line2d_23">
    <path d="M 200.86634 59.493135 
L 265.760307 154.17574 
" clip-path="url(#p31580c07ef)" style="fill: none; stroke: #000000; stroke-width: 2"/>
   </g>
   <g id="patch_43">
    <path d="M 305.592399 159.713164 
L 301.061502 157.447716 
L 302.194226 156.314992 
L 302.194226 156.314991 
L 302.194226 156.314991 
L 302.194226 156.314992 
L 303.32695 155.182268 
z
" clip-path="url(#p31580c07ef)" style="stroke: #000000; stroke-width: 2; stroke-linejoin: miter"/>
   </g>
   <g id="line2d_24">
    <path d="M 203.119355 57.24012 
L 302.87386 156.994626 
" clip-path="url(#p31580c07ef)" style="fill: none; stroke: #000000; stroke-width: 2"/>
   </g>
   <g id="patch_44">
    <path d="M 46.004318 162.149907 
L 49.294492 158.29815 
L 50.121002 159.670378 
L 50.121003 159.670378 
L 50.121003 159.670378 
L 50.121002 159.670378 
L 50.947512 161.042606 
z
" clip-path="url(#p31580c07ef)" style="stroke: #000000; stroke-width: 2; stroke-linejoin: miter"/>
   </g>
   <g id="line2d_25">
    <path d="M 223.923324 54.987106 
L 49.297666 160.166284 
" clip-path="url(#p31580c07ef)" style="fill: none; stroke: #000000; stroke-width: 2"/>
   </g>
   <g id="patch_45">
    <path d="M 84.872038 160.943683 
L 87.761253 156.782708 
L 88.720625 158.06557 
L 88.720625 158.06557 
L 88.720625 158.06557 
L 88.720625 158.06557 
L 89.679996 159.348432 
z
" clip-path="url(#p31580c07ef)" style="stroke: #000000; stroke-width: 2; stroke-linejoin: miter"/>
   </g>
   <g id="line2d_26">
    <path d="M 225.049832 56.113613 
L 87.950908 158.641192 
" clip-path="url(#p31580c07ef)" style="fill: none; stroke: #000000; stroke-width: 2"/>
   </g>
   <g id="patch_46">
    <path d="M 123.703295 159.713164 
L 125.968743 155.182268 
L 127.101468 156.314992 
L 127.101468 156.314991 
L 127.101468 156.314991 
L 127.101468 156.314992 
L 128.234192 157.447716 
z
" clip-path="url(#p31580c07ef)" style="stroke: #000000; stroke-width: 2; stroke-linejoin: miter"/>
   </g>
   <g id="line2d_27">
    <path d="M 226.176339 57.24012 
L 126.421833 156.994626 
" clip-path="url(#p31580c07ef)" style="fill: none; stroke: #000000; stroke-width: 2"/>
   </g>
   <g id="patch_47">
    <path d="M 161.361872 157.346975 
L 162.757417 152.4773 
L 164.078765 153.382931 
L 164.078765 153.382931 
L 164.078765 153.382931 
L 164.078765 153.382931 
L 165.400113 154.288563 
z
" clip-path="url(#p31580c07ef)" style="stroke: #000000; stroke-width: 2; stroke-linejoin: miter"/>
   </g>
   <g id="line2d_28">
    <path d="M 228.429354 59.493135 
L 163.535386 154.17574 
" clip-path="url(#p31580c07ef)" style="fill: none; stroke: #000000; stroke-width: 2"/>
   </g>
   <g id="patch_48">
    <path d="M 198.127979 155.966792 
L 198.205229 150.901684 
L 199.717036 151.43137 
L 199.717036 151.43137 
L 199.717036 151.43137 
L 199.717036 151.43137 
L 201.228843 151.961056 
z
" clip-path="url(#p31580c07ef)" style="stroke: #000000; stroke-width: 2; stroke-linejoin: miter"/>
   </g>
   <g id="line2d_29">
    <path d="M 231.485526 60.759043 
L 199.399224 152.338454 
" clip-path="url(#p31580c07ef)" style="fill: none; stroke: #000000; stroke-width: 2"/>
   </g>
   <g id="patch_49">
    <path d="M 234.67177 155.912728 
L 233.069856 151.106986 
L 234.67177 151.106986 
L 234.67177 151.106986 
L 234.67177 151.106986 
L 234.67177 151.106986 
L 236.273684 151.106986 
z
" clip-path="url(#p31580c07ef)" style="stroke: #000000; stroke-width: 2; stroke-linejoin: miter"/>
   </g>
   <g id="line2d_30">
    <path d="M 234.67177 60.759043 
L 234.67177 152.068134 
" clip-path="url(#p31580c07ef)" style="fill: none; stroke: #000000; stroke-width: 2"/>
   </g>
   <g id="patch_50">
    <path d="M 271.215562 155.966792 
L 268.114698 151.961056 
L 269.626505 151.43137 
L 269.626505 151.43137 
L 269.626505 151.43137 
L 269.626505 151.43137 
L 271.138312 150.901684 
z
" clip-path="url(#p31580c07ef)" style="stroke: #000000; stroke-width: 2; stroke-linejoin: miter"/>
   </g>
   <g id="line2d_31">
    <path d="M 237.858014 60.759043 
L 269.944316 152.338454 
" clip-path="url(#p31580c07ef)" style="fill: none; stroke: #000000; stroke-width: 2"/>
   </g>
   <g id="patch_51">
    <path d="M 307.981669 157.346975 
L 303.943428 154.288563 
L 305.264776 153.382931 
L 305.264776 153.382931 
L 305.264776 153.382931 
L 305.264776 153.382931 
L 306.586124 152.4773 
z
" clip-path="url(#p31580c07ef)" style="stroke: #000000; stroke-width: 2; stroke-linejoin: miter"/>
   </g>
   <g id="line2d_32">
    <path d="M 240.914187 59.493135 
L 305.808154 154.17574 
" clip-path="url(#p31580c07ef)" style="fill: none; stroke: #000000; stroke-width: 2"/>
   </g>
   <g id="patch_52">
    <path d="M 107.742435 277.490516 
L 103.704193 274.432103 
L 105.025541 273.526472 
L 105.025541 273.526472 
L 105.025541 273.526472 
L 105.025541 273.526472 
L 106.346889 272.620841 
z
" clip-path="url(#p31580c07ef)" style="stroke: #000000; stroke-width: 2; stroke-linejoin: miter"/>
   </g>
   <g id="line2d_33">
    <path d="M 40.674952 179.636676 
L 105.56892 274.319281 
" clip-path="url(#p31580c07ef)" style="fill: none; stroke: #000000; stroke-width: 2"/>
   </g>
   <g id="patch_53">
    <path d="M 145.401011 279.856705 
L 140.870114 277.591257 
L 142.002839 276.458532 
L 142.002838 276.458532 
L 142.002838 276.458532 
L 142.002839 276.458532 
L 143.135563 275.325808 
z
" clip-path="url(#p31580c07ef)" style="stroke: #000000; stroke-width: 2; stroke-linejoin: miter"/>
   </g>
   <g id="line2d_34">
    <path d="M 42.927967 177.383661 
L 142.682473 277.138167 
" clip-path="url(#p31580c07ef)" style="fill: none; stroke: #000000; stroke-width: 2"/>
   </g>
   <g id="patch_54">
    <path d="M 184.232268 281.087224 
L 179.424311 279.491973 
L 180.383682 278.209111 
L 180.383681 278.20911 
L 180.383681 278.20911 
L 180.383682 278.209111 
L 181.343053 276.926249 
z
" clip-path="url(#p31580c07ef)" style="stroke: #000000; stroke-width: 2; stroke-linejoin: miter"/>
   </g>
   <g id="line2d_35">
    <path d="M 44.054474 176.257154 
L 181.153399 278.784733 
" clip-path="url(#p31580c07ef)" style="fill: none; stroke: #000000; stroke-width: 2"/>
   </g>
   <g id="patch_55">
    <path d="M 223.099988 282.293448 
L 218.156794 281.186147 
L 218.983304 279.813919 
L 218.983304 279.813919 
L 218.983304 279.813919 
L 218.983304 279.813919 
L 219.809814 278.441691 
z
" clip-path="url(#p31580c07ef)" style="stroke: #000000; stroke-width: 2; stroke-linejoin: miter"/>
   </g>
   <g id="line2d_36">
    <path d="M 45.180982 175.130646 
L 219.80664 280.309824 
" clip-path="url(#p31580c07ef)" style="fill: none; stroke: #000000; stroke-width: 2"/>
   </g>
   <g id="patch_56">
    <path d="M 111.024174 276.110332 
L 107.92331 272.104596 
L 109.435117 271.574911 
L 109.435117 271.57491 
L 109.435117 271.57491 
L 109.435117 271.574911 
L 110.946925 271.045225 
z
" clip-path="url(#p31580c07ef)" style="stroke: #000000; stroke-width: 2; stroke-linejoin: miter"/>
   </g>
   <g id="line2d_37">
    <path d="M 77.666627 180.902584 
L 109.752929 272.481995 
" clip-path="url(#p31580c07ef)" style="fill: none; stroke: #000000; stroke-width: 2"/>
   </g>
   <g id="patch_57">
    <path d="M 147.790282 277.490516 
L 143.75204 274.432103 
L 145.073388 273.526472 
L 145.073388 273.526472 
L 145.073388 273.526472 
L 145.073388 273.526472 
L 146.394736 272.620841 
z
" clip-path="url(#p31580c07ef)" style="stroke: #000000; stroke-width: 2; stroke-linejoin: miter"/>
   </g>
   <g id="line2d_38">
    <path d="M 80.722799 179.636676 
L 145.616767 274.319281 
" clip-path="url(#p31580c07ef)" style="fill: none; stroke: #000000; stroke-width: 2"/>
   </g>
   <g id="patch_58">
    <path d="M 185.448858 279.856705 
L 180.917961 277.591257 
L 182.050686 276.458532 
L 182.050685 276.458532 
L 182.050685 276.458532 
L 182.050686 276.458532 
L 183.18341 275.325808 
z
" clip-path="url(#p31580c07ef)" style="stroke: #000000; stroke-width: 2; stroke-linejoin: miter"/>
   </g>
   <g id="line2d_39">
    <path d="M 82.975814 177.383661 
L 182.73032 277.138167 
" clip-path="url(#p31580c07ef)" style="fill: none; stroke: #000000; stroke-width: 2"/>
   </g>
   <g id="patch_59">
    <path d="M 224.280115 281.087224 
L 219.472157 279.491973 
L 220.431529 278.209111 
L 220.431528 278.20911 
L 220.431528 278.20911 
L 220.431529 278.209111 
L 221.3909 276.926249 
z
" clip-path="url(#p31580c07ef)" style="stroke: #000000; stroke-width: 2; stroke-linejoin: miter"/>
   </g>
   <g id="line2d_40">
    <path d="M 84.102321 176.257154 
L 221.201245 278.784733 
" clip-path="url(#p31580c07ef)" style="fill: none; stroke: #000000; stroke-width: 2"/>
   </g>
   <g id="patch_60">
    <path d="M 114.52823 276.056268 
L 112.926316 271.250527 
L 114.52823 271.250527 
L 114.52823 271.250526 
L 114.52823 271.250526 
L 114.52823 271.250527 
L 116.130144 271.250527 
z
" clip-path="url(#p31580c07ef)" style="stroke: #000000; stroke-width: 2; stroke-linejoin: miter"/>
   </g>
   <g id="line2d_41">
    <path d="M 114.52823 180.902584 
L 114.52823 272.211675 
" clip-path="url(#p31580c07ef)" style="fill: none; stroke: #000000; stroke-width: 2"/>
   </g>
   <g id="patch_61">
    <path d="M 151.072021 276.110332 
L 147.971157 272.104596 
L 149.482964 271.574911 
L 149.482964 271.57491 
L 149.482964 271.57491 
L 149.482964 271.574911 
L 150.994771 271.045225 
z
" clip-path="url(#p31580c07ef)" style="stroke: #000000; stroke-width: 2; stroke-linejoin: miter"/>
   </g>
   <g id="line2d_42">
    <path d="M 117.714474 180.902584 
L 149.800776 272.481995 
" clip-path="url(#p31580c07ef)" style="fill: none; stroke: #000000; stroke-width: 2"/>
   </g>
   <g id="patch_62">
    <path d="M 187.838128 277.490516 
L 183.799887 274.432103 
L 185.121235 273.526472 
L 185.121235 273.526472 
L 185.121235 273.526472 
L 185.121235 273.526472 
L 186.442583 272.620841 
z
" clip-path="url(#p31580c07ef)" style="stroke: #000000; stroke-width: 2; stroke-linejoin: miter"/>
   </g>
   <g id="line2d_43">
    <path d="M 120.770646 179.636676 
L 185.664614 274.319281 
" clip-path="url(#p31580c07ef)" style="fill: none; stroke: #000000; stroke-width: 2"/>
   </g>
   <g id="patch_63">
    <path d="M 225.496705 279.856705 
L 220.965808 277.591257 
L 222.098532 276.458532 
L 222.098532 276.458532 
L 222.098532 276.458532 
L 222.098532 276.458532 
L 223.231257 275.325808 
z
" clip-path="url(#p31580c07ef)" style="stroke: #000000; stroke-width: 2; stroke-linejoin: miter"/>
   </g>
   <g id="line2d_44">
    <path d="M 123.023661 177.383661 
L 222.778167 277.138167 
" clip-path="url(#p31580c07ef)" style="fill: none; stroke: #000000; stroke-width: 2"/>
   </g>
   <g id="patch_64">
    <path d="M 118.032285 276.110332 
L 118.109535 271.045225 
L 119.621342 271.574911 
L 119.621342 271.57491 
L 119.621342 271.57491 
L 119.621342 271.574911 
L 121.133149 272.104596 
z
" clip-path="url(#p31580c07ef)" style="stroke: #000000; stroke-width: 2; stroke-linejoin: miter"/>
   </g>
   <g id="line2d_45">
    <path d="M 151.389833 180.902584 
L 119.303531 272.481995 
" clip-path="url(#p31580c07ef)" style="fill: none; stroke: #000000; stroke-width: 2"/>
   </g>
   <g id="patch_65">
    <path d="M 154.576077 276.056268 
L 152.974163 271.250527 
L 154.576077 271.250527 
L 154.576077 271.250526 
L 154.576077 271.250526 
L 154.576077 271.250527 
L 156.17799 271.250527 
z
" clip-path="url(#p31580c07ef)" style="stroke: #000000; stroke-width: 2; stroke-linejoin: miter"/>
   </g>
   <g id="line2d_46">
    <path d="M 154.576077 180.902584 
L 154.576077 272.211675 
" clip-path="url(#p31580c07ef)" style="fill: none; stroke: #000000; stroke-width: 2"/>
   </g>
   <g id="patch_66">
    <path d="M 191.119868 276.110332 
L 188.019004 272.104596 
L 189.530811 271.574911 
L 189.530811 271.57491 
L 189.530811 271.57491 
L 189.530811 271.574911 
L 191.042618 271.045225 
z
" clip-path="url(#p31580c07ef)" style="stroke: #000000; stroke-width: 2; stroke-linejoin: miter"/>
   </g>
   <g id="line2d_47">
    <path d="M 157.76232 180.902584 
L 189.848622 272.481995 
" clip-path="url(#p31580c07ef)" style="fill: none; stroke: #000000; stroke-width: 2"/>
   </g>
   <g id="patch_67">
    <path d="M 227.885975 277.490516 
L 223.847734 274.432103 
L 225.169082 273.526472 
L 225.169082 273.526472 
L 225.169082 273.526472 
L 225.169082 273.526472 
L 226.49043 272.620841 
z
" clip-path="url(#p31580c07ef)" style="stroke: #000000; stroke-width: 2; stroke-linejoin: miter"/>
   </g>
   <g id="line2d_48">
    <path d="M 160.818493 179.636676 
L 225.712461 274.319281 
" clip-path="url(#p31580c07ef)" style="fill: none; stroke: #000000; stroke-width: 2"/>
   </g>
   <g id="patch_68">
    <path d="M 121.314025 277.490516 
L 122.70957 272.620841 
L 124.030918 273.526472 
L 124.030918 273.526472 
L 124.030918 273.526472 
L 124.030918 273.526472 
L 125.352266 274.432103 
z
" clip-path="url(#p31580c07ef)" style="stroke: #000000; stroke-width: 2; stroke-linejoin: miter"/>
   </g>
   <g id="line2d_49">
    <path d="M 188.381507 179.636676 
L 123.487539 274.319281 
" clip-path="url(#p31580c07ef)" style="fill: none; stroke: #000000; stroke-width: 2"/>
   </g>
   <g id="patch_69">
    <path d="M 158.080132 276.110332 
L 158.157382 271.045225 
L 159.669189 271.574911 
L 159.669189 271.57491 
L 159.669189 271.57491 
L 159.669189 271.574911 
L 161.180996 272.104596 
z
" clip-path="url(#p31580c07ef)" style="stroke: #000000; stroke-width: 2; stroke-linejoin: miter"/>
   </g>
   <g id="line2d_50">
    <path d="M 191.43768 180.902584 
L 159.351378 272.481995 
" clip-path="url(#p31580c07ef)" style="fill: none; stroke: #000000; stroke-width: 2"/>
   </g>
   <g id="patch_70">
    <path d="M 194.623923 276.056268 
L 193.02201 271.250527 
L 194.623923 271.250527 
L 194.623923 271.250526 
L 194.623923 271.250526 
L 194.623923 271.250527 
L 196.225837 271.250527 
z
" clip-path="url(#p31580c07ef)" style="stroke: #000000; stroke-width: 2; stroke-linejoin: miter"/>
   </g>
   <g id="line2d_51">
    <path d="M 194.623923 180.902584 
L 194.623923 272.211675 
" clip-path="url(#p31580c07ef)" style="fill: none; stroke: #000000; stroke-width: 2"/>
   </g>
   <g id="patch_71">
    <path d="M 231.167715 276.110332 
L 228.066851 272.104596 
L 229.578658 271.574911 
L 229.578658 271.57491 
L 229.578658 271.57491 
L 229.578658 271.574911 
L 231.090465 271.045225 
z
" clip-path="url(#p31580c07ef)" style="stroke: #000000; stroke-width: 2; stroke-linejoin: miter"/>
   </g>
   <g id="line2d_52">
    <path d="M 197.810167 180.902584 
L 229.896469 272.481995 
" clip-path="url(#p31580c07ef)" style="fill: none; stroke: #000000; stroke-width: 2"/>
   </g>
   <g id="patch_72">
    <path d="M 123.703295 279.856705 
L 125.968743 275.325808 
L 127.101468 276.458532 
L 127.101468 276.458532 
L 127.101468 276.458532 
L 127.101468 276.458532 
L 128.234192 277.591257 
z
" clip-path="url(#p31580c07ef)" style="stroke: #000000; stroke-width: 2; stroke-linejoin: miter"/>
   </g>
   <g id="line2d_53">
    <path d="M 226.176339 177.383661 
L 126.421833 277.138167 
" clip-path="url(#p31580c07ef)" style="fill: none; stroke: #000000; stroke-width: 2"/>
   </g>
   <g id="patch_73">
    <path d="M 161.361872 277.490516 
L 162.757417 272.620841 
L 164.078765 273.526472 
L 164.078765 273.526472 
L 164.078765 273.526472 
L 164.078765 273.526472 
L 165.400113 274.432103 
z
" clip-path="url(#p31580c07ef)" style="stroke: #000000; stroke-width: 2; stroke-linejoin: miter"/>
   </g>
   <g id="line2d_54">
    <path d="M 228.429354 179.636676 
L 163.535386 274.319281 
" clip-path="url(#p31580c07ef)" style="fill: none; stroke: #000000; stroke-width: 2"/>
   </g>
   <g id="patch_74">
    <path d="M 198.127979 276.110332 
L 198.205229 271.045225 
L 199.717036 271.574911 
L 199.717036 271.57491 
L 199.717036 271.57491 
L 199.717036 271.574911 
L 201.228843 272.104596 
z
" clip-path="url(#p31580c07ef)" style="stroke: #000000; stroke-width: 2; stroke-linejoin: miter"/>
   </g>
   <g id="line2d_55">
    <path d="M 231.485526 180.902584 
L 199.399224 272.481995 
" clip-path="url(#p31580c07ef)" style="fill: none; stroke: #000000; stroke-width: 2"/>
   </g>
   <g id="patch_75">
    <path d="M 234.67177 276.056268 
L 233.069856 271.250527 
L 234.67177 271.250527 
L 234.67177 271.250526 
L 234.67177 271.250526 
L 234.67177 271.250527 
L 236.273684 271.250527 
z
" clip-path="url(#p31580c07ef)" style="stroke: #000000; stroke-width: 2; stroke-linejoin: miter"/>
   </g>
   <g id="line2d_56">
    <path d="M 234.67177 180.902584 
L 234.67177 272.211675 
" clip-path="url(#p31580c07ef)" style="fill: none; stroke: #000000; stroke-width: 2"/>
   </g>
   <g id="patch_76">
    <path d="M 124.919885 281.087224 
L 127.8091 276.926249 
L 128.768471 278.209111 
L 128.768472 278.20911 
L 128.768472 278.20911 
L 128.768471 278.209111 
L 129.727843 279.491973 
z
" clip-path="url(#p31580c07ef)" style="stroke: #000000; stroke-width: 2; stroke-linejoin: miter"/>
   </g>
   <g id="line2d_57">
    <path d="M 265.097679 176.257154 
L 127.998755 278.784733 
" clip-path="url(#p31580c07ef)" style="fill: none; stroke: #000000; stroke-width: 2"/>
   </g>
   <g id="patch_77">
    <path d="M 163.751142 279.856705 
L 166.01659 275.325808 
L 167.149314 276.458532 
L 167.149315 276.458532 
L 167.149315 276.458532 
L 167.149314 276.458532 
L 168.282039 277.591257 
z
" clip-path="url(#p31580c07ef)" style="stroke: #000000; stroke-width: 2; stroke-linejoin: miter"/>
   </g>
   <g id="line2d_58">
    <path d="M 266.224186 177.383661 
L 166.46968 277.138167 
" clip-path="url(#p31580c07ef)" style="fill: none; stroke: #000000; stroke-width: 2"/>
   </g>
   <g id="patch_78">
    <path d="M 201.409718 277.490516 
L 202.805264 272.620841 
L 204.126612 273.526472 
L 204.126612 273.526472 
L 204.126612 273.526472 
L 204.126612 273.526472 
L 205.44796 274.432103 
z
" clip-path="url(#p31580c07ef)" style="stroke: #000000; stroke-width: 2; stroke-linejoin: miter"/>
   </g>
   <g id="line2d_59">
    <path d="M 268.477201 179.636676 
L 203.583233 274.319281 
" clip-path="url(#p31580c07ef)" style="fill: none; stroke: #000000; stroke-width: 2"/>
   </g>
   <g id="patch_79">
    <path d="M 238.175826 276.110332 
L 238.253075 271.045225 
L 239.764883 271.574911 
L 239.764883 271.57491 
L 239.764883 271.57491 
L 239.764883 271.574911 
L 241.27669 272.104596 
z
" clip-path="url(#p31580c07ef)" style="stroke: #000000; stroke-width: 2; stroke-linejoin: miter"/>
   </g>
   <g id="line2d_60">
    <path d="M 271.533373 180.902584 
L 239.447071 272.481995 
" clip-path="url(#p31580c07ef)" style="fill: none; stroke: #000000; stroke-width: 2"/>
   </g>
   <g id="patch_80">
    <path d="M 126.100012 282.293448 
L 129.390186 278.441691 
L 130.216696 279.813919 
L 130.216696 279.813919 
L 130.216696 279.813919 
L 130.216696 279.813919 
L 131.043206 281.186147 
z
" clip-path="url(#p31580c07ef)" style="stroke: #000000; stroke-width: 2; stroke-linejoin: miter"/>
   </g>
   <g id="line2d_61">
    <path d="M 304.019018 175.130646 
L 129.39336 280.309824 
" clip-path="url(#p31580c07ef)" style="fill: none; stroke: #000000; stroke-width: 2"/>
   </g>
   <g id="patch_81">
    <path d="M 164.967732 281.087224 
L 167.856947 276.926249 
L 168.816318 278.209111 
L 168.816319 278.20911 
L 168.816319 278.20911 
L 168.816318 278.209111 
L 169.775689 279.491973 
z
" clip-path="url(#p31580c07ef)" style="stroke: #000000; stroke-width: 2; stroke-linejoin: miter"/>
   </g>
   <g id="line2d_62">
    <path d="M 305.145526 176.257154 
L 168.046601 278.784733 
" clip-path="url(#p31580c07ef)" style="fill: none; stroke: #000000; stroke-width: 2"/>
   </g>
   <g id="patch_82">
    <path d="M 203.798989 279.856705 
L 206.064437 275.325808 
L 207.197161 276.458532 
L 207.197162 276.458532 
L 207.197162 276.458532 
L 207.197161 276.458532 
L 208.329886 277.591257 
z
" clip-path="url(#p31580c07ef)" style="stroke: #000000; stroke-width: 2; stroke-linejoin: miter"/>
   </g>
   <g id="line2d_63">
    <path d="M 306.272033 177.383661 
L 206.517527 277.138167 
" clip-path="url(#p31580c07ef)" style="fill: none; stroke: #000000; stroke-width: 2"/>
   </g>
   <g id="patch_83">
    <path d="M 241.457565 277.490516 
L 242.853111 272.620841 
L 244.174459 273.526472 
L 244.174459 273.526472 
L 244.174459 273.526472 
L 244.174459 273.526472 
L 245.495807 274.432103 
z
" clip-path="url(#p31580c07ef)" style="stroke: #000000; stroke-width: 2; stroke-linejoin: miter"/>
   </g>
   <g id="line2d_64">
    <path d="M 308.525048 179.636676 
L 243.63108 274.319281 
" clip-path="url(#p31580c07ef)" style="fill: none; stroke: #000000; stroke-width: 2"/>
   </g>
   <g id="patch_84">
    <path d="M 151.072021 396.253873 
L 147.971157 392.248137 
L 149.482964 391.718451 
L 149.482964 391.718451 
L 149.482964 391.718451 
L 149.482964 391.718451 
L 150.994771 391.188766 
z
" clip-path="url(#p31580c07ef)" style="stroke: #000000; stroke-width: 2; stroke-linejoin: miter"/>
   </g>
   <g id="line2d_65">
    <path d="M 117.714474 301.046124 
L 149.800776 392.625535 
" clip-path="url(#p31580c07ef)" style="fill: none; stroke: #000000; stroke-width: 2"/>
   </g>
   <g id="patch_85">
    <path d="M 187.838128 397.634057 
L 183.799887 394.575644 
L 185.121235 393.670013 
L 185.121235 393.670012 
L 185.121235 393.670012 
L 185.121235 393.670013 
L 186.442583 392.764382 
z
" clip-path="url(#p31580c07ef)" style="stroke: #000000; stroke-width: 2; stroke-linejoin: miter"/>
   </g>
   <g id="line2d_66">
    <path d="M 120.770646 299.780216 
L 185.664614 394.462821 
" clip-path="url(#p31580c07ef)" style="fill: none; stroke: #000000; stroke-width: 2"/>
   </g>
   <g id="patch_86">
    <path d="M 154.576077 396.199809 
L 152.974163 391.394067 
L 154.576077 391.394067 
L 154.576077 391.394067 
L 154.576077 391.394067 
L 154.576077 391.394067 
L 156.17799 391.394067 
z
" clip-path="url(#p31580c07ef)" style="stroke: #000000; stroke-width: 2; stroke-linejoin: miter"/>
   </g>
   <g id="line2d_67">
    <path d="M 154.576077 301.046124 
L 154.576077 392.355215 
" clip-path="url(#p31580c07ef)" style="fill: none; stroke: #000000; stroke-width: 2"/>
   </g>
   <g id="patch_87">
    <path d="M 191.119868 396.253873 
L 188.019004 392.248137 
L 189.530811 391.718451 
L 189.530811 391.718451 
L 189.530811 391.718451 
L 189.530811 391.718451 
L 191.042618 391.188766 
z
" clip-path="url(#p31580c07ef)" style="stroke: #000000; stroke-width: 2; stroke-linejoin: miter"/>
   </g>
   <g id="line2d_68">
    <path d="M 157.76232 301.046124 
L 189.848622 392.625535 
" clip-path="url(#p31580c07ef)" style="fill: none; stroke: #000000; stroke-width: 2"/>
   </g>
   <g id="patch_88">
    <path d="M 158.080132 396.253873 
L 158.157382 391.188766 
L 159.669189 391.718451 
L 159.669189 391.718451 
L 159.669189 391.718451 
L 159.669189 391.718451 
L 161.180996 392.248137 
z
" clip-path="url(#p31580c07ef)" style="stroke: #000000; stroke-width: 2; stroke-linejoin: miter"/>
   </g>
   <g id="line2d_69">
    <path d="M 191.43768 301.046124 
L 159.351378 392.625535 
" clip-path="url(#p31580c07ef)" style="fill: none; stroke: #000000; stroke-width: 2"/>
   </g>
   <g id="patch_89">
    <path d="M 194.623923 396.199809 
L 193.02201 391.394067 
L 194.623923 391.394067 
L 194.623923 391.394067 
L 194.623923 391.394067 
L 194.623923 391.394067 
L 196.225837 391.394067 
z
" clip-path="url(#p31580c07ef)" style="stroke: #000000; stroke-width: 2; stroke-linejoin: miter"/>
   </g>
   <g id="line2d_70">
    <path d="M 194.623923 301.046124 
L 194.623923 392.355215 
" clip-path="url(#p31580c07ef)" style="fill: none; stroke: #000000; stroke-width: 2"/>
   </g>
   <g id="patch_90">
    <path d="M 161.361872 397.634057 
L 162.757417 392.764382 
L 164.078765 393.670013 
L 164.078765 393.670012 
L 164.078765 393.670012 
L 164.078765 393.670013 
L 165.400113 394.575644 
z
" clip-path="url(#p31580c07ef)" style="stroke: #000000; stroke-width: 2; stroke-linejoin: miter"/>
   </g>
   <g id="line2d_71">
    <path d="M 228.429354 299.780216 
L 163.535386 394.462821 
" clip-path="url(#p31580c07ef)" style="fill: none; stroke: #000000; stroke-width: 2"/>
   </g>
   <g id="patch_91">
    <path d="M 198.127979 396.253873 
L 198.205229 391.188766 
L 199.717036 391.718451 
L 199.717036 391.718451 
L 199.717036 391.718451 
L 199.717036 391.718451 
L 201.228843 392.248137 
z
" clip-path="url(#p31580c07ef)" style="stroke: #000000; stroke-width: 2; stroke-linejoin: miter"/>
   </g>
   <g id="line2d_72">
    <path d="M 231.485526 301.046124 
L 199.399224 392.625535 
" clip-path="url(#p31580c07ef)" style="fill: none; stroke: #000000; stroke-width: 2"/>
   </g>
  </g>
 </g>
 <defs>
  <clipPath id="p31580c07ef">
   <rect x="7.2" y="7.2" width="334.8" height="443.52"/>
  </clipPath>
 </defs>
</svg>
